<?xml version="1.0" standalone="no"?>
<!DOCTYPE svg PUBLIC "-//W3C//DTD SVG 20010904//EN"
 "http://www.w3.org/TR/2001/REC-SVG-20010904/DTD/svg10.dtd">
<svg version="1.0" xmlns="http://www.w3.org/2000/svg"
 width="600.000000pt" height="600.000000pt" viewBox="0 0 600.000000 600.000000"
 preserveAspectRatio="xMidYMid meet">
<metadata>
Created by potrace 1.14, written by Peter Selinger 2001-2017
</metadata>
<g transform="translate(0.000000,600.000000) scale(0.100000,-0.100000)"
fill="#000000" stroke="none">
<path d="M2920 5772 c-46 -22 -233 -161 -340 -253 -85 -74 -490 -474 -565
-559 -34 -38 -77 -88 -199 -230 -12 -14 -44 -54 -71 -90 -27 -36 -52 -67 -55
-70 -13 -12 -112 -152 -164 -233 -110 -171 -171 -312 -183 -418 l-6 -56 46
-18 c40 -15 66 -16 189 -11 131 7 145 6 160 -11 21 -24 16 -60 -20 -136 -45
-96 -154 -219 -337 -382 -44 -38 -95 -84 -115 -102 -19 -17 -44 -40 -56 -50
-237 -205 -379 -354 -422 -441 -10 -20 -20 -56 -21 -80 -2 -37 2 -47 29 -72
53 -49 112 -61 274 -54 176 8 181 8 210 -11 45 -30 43 -77 -10 -194 -32 -69
-88 -159 -137 -218 -30 -37 -258 -264 -333 -332 -173 -157 -319 -310 -362
-382 -32 -52 -27 -167 10 -229 63 -107 161 -139 410 -135 91 1 170 5 175 8 4
3 39 8 78 12 38 3 72 8 75 10 3 1 36 6 75 10 38 4 72 8 75 10 3 1 32 6 65 9
33 4 69 9 80 11 89 19 234 30 380 30 131 0 159 -3 223 -24 83 -27 155 -84 170
-134 5 -17 10 -84 11 -147 1 -258 21 -372 80 -461 57 -86 60 -87 206 -93 143
-7 491 -7 680 -2 66 2 165 4 219 5 l99 1 39 40 c94 99 116 190 119 495 1 72 6
144 11 162 11 38 73 96 125 118 96 40 297 55 459 35 32 -5 82 -11 109 -14 47
-5 292 -39 366 -51 135 -21 235 -29 364 -29 232 -1 322 29 382 131 23 39 28
61 30 124 2 71 0 80 -30 125 -34 53 -241 263 -480 489 -175 166 -272 285 -332
409 -68 141 -66 208 8 221 40 8 46 8 197 1 144 -7 210 7 260 54 23 22 30 36
30 67 -1 114 -107 233 -570 640 -267 234 -376 365 -410 494 -19 70 -9 74 188
74 202 0 214 5 205 75 -8 60 -46 167 -95 264 -38 76 -145 256 -158 266 -3 3
-21 28 -40 55 -98 146 -318 414 -478 585 -279 295 -537 530 -712 646 -104 69
-144 77 -210 46z"/>
</g>
</svg>
